<svg xmlns="http://www.w3.org/2000/svg" width="300" height="300" viewBox="0 0 300 300"><path fill="#00E800" d="M176.982 287.938l-26.982-25.699-26.983 25.698-1.379-1.449 26.912-25.631-26.913-25.631 1.379-1.449 26.984 25.702 26.982-25.699 1.379 1.449-26.911 25.631 26.911 25.63-1.379 1.448zm38.034-16.877l-28.673-11.23.729-1.861 28.672 11.23-.728 1.861zm-130.031 0l-.729-1.861 28.673-11.23.729 1.861-28.673 11.23zm160.445-17.347l-29.128-6.668.447-1.948 29.127 6.668-.446 1.948zm-190.859 0l-.446-1.948 29.127-6.668.446 1.948-29.127 6.668zm130.534-1.463l-1.836-.793 11.44-26.481 1.836.793-11.44 26.481zm-70.212 0l-11.441-26.481 1.836-.793 11.441 26.481-1.836.793zm97.752-11.912l-1.939-.487 7.223-28.64 1.939.488-7.223 28.639zm-125.29 0l-7.223-28.639 1.939-.488 7.223 28.64-1.939.487zm154.383-12.603l-.158-1.994 30.035-2.375.158 1.994-30.035 2.375zm-183.477 0l-30.035-2.375.157-1.994 30.035 2.375-.157 1.994zm176.245-5.709l-2.529-29.037 1.992-.174 2.529 29.037-1.992.174zm-169.013 0l-1.992-.174 2.529-29.037 1.992.174-2.529 29.037zm195.437-19.032l-.729-1.861 28.625-11.212.729 1.861-28.625 11.212zm-221.861 0l-28.625-11.212.729-1.861 28.625 11.212-.729 1.861zm213.656-4.063l-11.445-26.492 1.836-.793 11.445 26.492-1.836.793zm-205.449 0l-1.836-.793 11.445-26.492 1.836.793-11.445 26.492zm225.677-25.012l-1.004-1.73 25.64-14.871 1.004 1.729-25.64 14.872zm-245.908 0l-25.638-14.872 1.004-1.729 25.638 14.871-1.004 1.73zm236.835-1.46l-16.172-25.291 1.687-1.077 16.172 25.29-1.687 1.078zm-227.76 0l-1.685-1.078 16.171-25.29 1.685 1.077-16.171 25.291zm231.555-28.463l-23.416-18.952 1.259-1.555 23.416 18.952-1.259 1.555zm-235.351 0l-1.258-1.555 23.416-18.952 1.258 1.555-23.416 18.952zm244.469-.96l-1.492-1.332 19.688-22.065 1.492 1.332-19.688 22.065zm-253.587 0l-19.688-22.066 1.492-1.332 19.688 22.065-1.492 1.333zm240.478-27.724l-27.304-12.966.856-1.807 27.304 12.966-.856 1.807zm-227.367 0l-.858-1.807 27.303-12.966.858 1.807-27.303 12.966zm-8.646-2.784l-13.684-26.135 1.771-.928 13.684 26.135-1.771.928zm244.657 0l-1.771-.928 13.684-26.135 1.771.928-13.684 26.135zm-20.008-23.546l-30.25-6.599.426-1.954 30.25 6.599-.426 1.954zm-204.641 0l-.426-1.954 30.252-6.599.426 1.954-30.252 6.599zm-7.28-5.366l-6.713-27.89 1.944-.468 6.713 27.89-1.944.468zm219.203 0l-1.944-.468 6.712-27.89 1.945.468-6.713 27.89zm-55.859-15.049l-.188-1.991 30.207-2.868.189 1.991-30.208 2.868zm-107.486 0l-30.21-2.868.189-1.991 30.21 2.868-.189 1.991zm141.824-9.277l-3.035-29.01 1.988-.208 3.034 29.01-1.987.208zm-176.162 0l-1.989-.208 3.035-29.01 1.989.208-3.035 29.01zm58.049-3.753l-30.029-7.464.482-1.941 30.029 7.464-.482 1.941zm60.063-.001l-.482-1.941 30.028-7.464.481 1.941-30.027 7.464zm32.267-14.87l-7.573-27.616 1.93-.529 7.574 27.616-1.931.529zm-124.597 0l-1.929-.529 7.575-27.616 1.929.529-7.575 27.616z"/><path fill="#00E800" d="M118.3 103.707c2.479 0 4.958 1.127 6.536 3.155l-1.578 1.578c-1.127-1.578-2.705-2.502-4.845-2.502-3.832 0-6.175 2.817-6.175 6.445 0 3.629 2.344 6.446 6.288 6.446 2.141 0 3.719-.924 4.846-2.502l1.578 1.578c-1.578 2.028-4.057 3.155-6.536 3.155-4.958 0-8.564-3.832-8.564-8.654-.002-4.844 3.604-8.699 8.45-8.699zM128.353 115.878c0 1.577 1.127 2.93 3.042 2.93 1.353 0 2.276-.677 2.615-1.578l1.893.901c-.902 1.578-2.479 2.705-4.62 2.705-2.817 0-5.184-2.254-5.184-5.521 0-3.269 2.253-5.522 5.184-5.522 2.704 0 4.958 2.142 4.958 5.409l-.226.677h-7.662zm.112-1.983h5.409c-.113-1.172-1.24-2.073-2.592-2.073-1.577-.001-2.479.901-2.817 2.073zM138.157 110.018h2.028l.226.901.113.113.113-.113c.451-.676 1.578-1.127 2.479-1.127 2.704 0 4.282 1.804 4.282 4.282v6.536h-2.253v-6.536c-.068-1.442-.767-2.253-2.254-2.253-1.33 0-2.434 1.081-2.479 2.389v6.4h-2.254v-10.592z" enable-background="new"/><g enable-background="new" fill="#00E800"><path d="M155.533 110.018h2.254l-5.634 15.101h-2.254l2.208-5.905-3.56-9.195h2.276l2.345 6.355 2.365-6.356zM164.775 110.018h2.027l.203.901.136.113.112-.113c.676-.676 1.803-1.127 2.93-1.127 2.93 0 5.409 2.254 5.409 5.522 0 3.268-2.479 5.521-5.409 5.521-1.104 0-2.254-.451-2.93-1.127l-.112-.113-.136.113v5.68h-2.23v-15.37zm5.296 8.79c2.142 0 3.269-1.578 3.269-3.493 0-1.916-1.127-3.493-3.269-3.493-1.915 0-3.269 1.577-3.269 3.493.001 1.914 1.354 3.493 3.269 3.493z"/></g><path fill="#00E800" d="M177.623 110.018h2.028l.226 1.127.113.113.112-.113c.676-.901 1.577-1.353 2.479-1.353.45 0 .676 0 1.127.226v2.028h-1.354c-1.329 0-2.434 1.082-2.479 2.39v6.175h-2.254v-10.593zM186.412 115.878c0 1.577 1.127 2.93 3.043 2.93 1.353 0 2.276-.677 2.615-1.578l1.893.901c-.902 1.578-2.479 2.705-4.62 2.705-2.817 0-5.184-2.254-5.184-5.521 0-3.269 2.253-5.522 5.184-5.522 2.704 0 4.958 2.142 4.958 5.409l-.226.677h-7.663zm.113-1.983h5.409c-.112-1.172-1.239-2.073-2.592-2.073-1.576-.001-2.479.901-2.817 2.073z" enable-background="new"/><g enable-background="new" fill="#00E800"><path d="M112.057 133.437l-4.823 3.898c2.952.158 5.048 2.321 5.048 5.251 0 2.592-2.141 5.297-5.409 5.297-3.155 0-5.409-2.366-5.409-5.071h2.253c0 1.69 1.353 2.93 3.155 2.93 1.803 0 3.155-1.465 3.155-3.155 0-2.028-1.465-3.268-3.38-3.268h-2.276v-2.028l4.643-3.854h-6.874v-2.231h8.564l1.353 2.231zM119.946 137.064h2.028l.226.901.113.113.113-.113c.451-.676 1.578-1.127 2.479-1.127 2.704 0 4.282 1.804 4.282 4.282v6.536h-2.253v-6.536c-.068-1.442-.767-2.253-2.254-2.253-1.33 0-2.434 1.081-2.479 2.389v6.4h-2.254v-10.592zM141.808 147.657h-2.028l-.226-.901-.113-.113-.113.113c-.676.676-1.803 1.127-2.93 1.127-2.93 0-5.409-2.254-5.409-5.521 0-3.269 2.479-5.522 5.409-5.522 1.127 0 2.254.451 2.93 1.127l.113.113.113-.113.226-.901h2.028v10.591zm-5.297-8.789c-2.141 0-3.291 1.577-3.291 3.493 0 1.915 1.149 3.493 3.291 3.493 1.916 0 3.268-1.578 3.268-3.493 0-1.916-1.352-3.493-3.268-3.493zM143.724 150.632c.676 0 1.014-.45 1.014-1.127v-12.44h2.231v12.216c0 2.028-1.104 3.38-3.358 3.38l-1.127-.225v-2.028l1.24.224zm1.014-15.596h2.231v-2.479h-2.231v2.479zM151.928 145.629l.227 2.028h-2.255l-.226-2.028v-15.1h2.253v15.1zM156.21 142.925c0 1.577 1.127 2.93 3.042 2.93 1.354 0 2.277-.677 2.615-1.578l1.893.901c-.901 1.578-2.479 2.705-4.619 2.705-2.818 0-5.184-2.254-5.184-5.521 0-3.269 2.253-5.522 5.184-5.522 2.703 0 4.957 2.142 4.957 5.409l-.225.677h-7.663zm.112-1.984h5.41c-.113-1.172-1.24-2.073-2.592-2.073-1.578 0-2.48.902-2.818 2.073zM166.015 137.064h2.028l.203.901.135.113.113-.113c.676-.676 1.803-1.127 2.93-1.127 2.93 0 5.408 2.254 5.408 5.522 0 3.268-2.479 5.521-5.408 5.521-1.104 0-2.254-.451-2.93-1.127l-.113-.113-.135.113v5.68h-2.231v-15.37zm5.296 8.79c2.142 0 3.269-1.578 3.269-3.493 0-1.916-1.127-3.493-3.269-3.493-1.915 0-3.268 1.577-3.268 3.493 0 1.915 1.353 3.493 3.268 3.493zM177.961 144.728l2.027-.789c.113 1.127 1.015 1.961 2.142 1.961s1.69-.608 1.69-1.285c0-.653-.451-.991-1.353-1.149-.383-.067-.767-.157-1.126-.247-1.804-.451-3.043-1.533-3.043-3.224 0-2.028 1.916-3.155 3.719-3.155 1.916 0 3.605 1.24 3.831 3.155h-2.254c0-.676-.676-1.172-1.577-1.172-.902 0-1.578.496-1.578 1.172 0 .677.541 1.06 1.353 1.218l1.127.225c1.758.384 3.042 1.375 3.042 3.178 0 1.804-1.689 3.269-3.831 3.269s-3.719-1.242-4.169-3.157zm5.184-8.903h-2.254l-2.051-2.389 1.329-1.218 1.849 2.164 1.848-2.164 1.33 1.218-2.051 2.389zM187.99 132.558h2.254v2.479h-2.254v-2.479zm.023 4.506h2.208v10.593h-2.208v-10.593zM194.525 142.925c0 1.577 1.127 2.93 3.043 2.93 1.353 0 2.276-.677 2.615-1.578l1.893.901c-.902 1.578-2.479 2.705-4.62 2.705-2.817 0-5.184-2.254-5.184-5.521 0-3.269 2.253-5.522 5.184-5.522 2.704 0 4.958 2.142 4.958 5.409l-.226.677h-7.663zm.114-1.984h5.409c-.112-1.172-1.239-2.073-2.592-2.073-1.577 0-2.479.902-2.817 2.073z"/></g><path fill="#00E800" d="M114.648 164.112h2.028l.203.901.135.113.113-.113c.676-.676 1.803-1.127 2.93-1.127 2.93 0 5.409 2.254 5.409 5.522 0 3.268-2.479 5.521-5.409 5.521-1.104 0-2.254-.451-2.93-1.127l-.113-.113-.135.113v5.68h-2.231v-15.37zm5.297 8.79c2.141 0 3.268-1.578 3.268-3.493 0-1.916-1.127-3.493-3.268-3.493-1.916 0-3.268 1.577-3.268 3.493 0 1.915 1.352 3.493 3.268 3.493zM127.496 164.112h2.028l.226 1.127.113.113.113-.113c.676-.901 1.578-1.353 2.479-1.353.451 0 .676 0 1.127.226v2.028h-1.353c-1.33 0-2.434 1.082-2.479 2.39v6.175h-2.254v-10.593z" enable-background="new"/><g enable-background="new" fill="#00E800"><path d="M139.576 163.887c2.93 0 5.521 2.254 5.521 5.522 0 3.268-2.592 5.521-5.521 5.521s-5.521-2.254-5.521-5.521c0-3.268 2.591-5.522 5.521-5.522zm0 9.015c2.141 0 3.268-1.578 3.268-3.493 0-1.916-1.127-3.493-3.268-3.493s-3.268 1.577-3.268 3.493c0 1.915 1.127 3.493 3.268 3.493zM146.338 177.68c.676 0 1.014-.45 1.014-1.127v-12.44h2.231v12.216c0 2.028-1.104 3.38-3.358 3.38l-1.127-.225v-2.028l1.24.224zm1.015-15.596h2.231v-2.479h-2.231v2.479zM153.865 169.973c0 1.577 1.127 2.93 3.043 2.93 1.353 0 2.276-.677 2.615-1.578l1.893.901c-.902 1.578-2.479 2.705-4.62 2.705-2.817 0-5.184-2.254-5.184-5.521 0-3.269 2.253-5.522 5.184-5.522 2.704 0 4.958 2.142 4.958 5.409l-.226.677h-7.663zm.114-1.984h5.409c-.112-1.172-1.239-2.073-2.592-2.073-1.577 0-2.48.901-2.817 2.073zM170.206 164.112h2.93l-5.093 5.094 5.318 5.499h-2.93l-4.508-4.508v4.508h-2.254v-17.128h2.254v10.817l4.283-4.282zM173.362 164.112h2.051v-2.254l1.78-2.253h.428v4.507h2.277v2.028h-2.277v5.409c0 .676.474 1.127 1.15 1.127l1.352-.226v2.028l-1.239.226c-2.254 0-3.471-1.127-3.471-3.155v-5.409h-2.051v-2.028zM188.012 164.112h2.254l-5.635 15.101h-2.254l2.209-5.905-3.561-9.195h2.275l2.345 6.355 2.367-6.356z"/></g></svg>