<svg xmlns="http://www.w3.org/2000/svg" width="300" height="300" viewBox="0 0 300 300"><path fill="#00E800" d="M176.983 287.938l-26.983-25.699-26.983 25.698-1.379-1.449 26.912-25.63-26.913-25.631 1.379-1.449 26.984 25.7 26.983-25.699 1.379 1.449-26.912 25.631 26.912 25.63-1.379 1.449zm38.032-16.878l-28.672-11.23.729-1.861 28.672 11.23-.729 1.861zm-130.03 0l-.729-1.861 28.673-11.23.729 1.861-28.673 11.23zm160.444-17.346l-29.127-6.668.447-1.949 29.127 6.668-.447 1.949zm-190.858 0l-.446-1.949 29.127-6.668.446 1.949-29.127 6.668zm130.535-1.463l-1.836-.793 11.44-26.481 1.836.793-11.44 26.481zm-70.213 0l-11.441-26.481 1.836-.793 11.441 26.481-1.836.793zm97.751-11.912l-1.939-.488 7.223-28.639 1.939.488-7.223 28.639zm-125.289 0l-7.223-28.639 1.939-.488 7.223 28.639-1.939.488zm154.383-12.603l-.158-1.994 30.035-2.375.158 1.994-30.035 2.375zm-183.477 0l-30.035-2.375.157-1.994 30.035 2.375-.157 1.994zm176.245-5.709l-2.529-29.037 1.992-.174 2.529 29.037-1.992.174zm-169.013 0l-1.992-.174 2.529-29.037 1.992.174-2.529 29.037zm195.437-19.032l-.729-1.861 28.625-11.212.729 1.861-28.625 11.212zm-221.861 0l-28.625-11.212.729-1.861 28.625 11.212-.729 1.861zm213.656-4.064l-11.446-26.491 1.836-.793 11.446 26.491-1.836.793zm-205.449 0l-1.836-.793 11.445-26.491 1.836.793-11.445 26.491zm225.677-25.011l-1.004-1.73 25.64-14.872 1.004 1.73-25.64 14.872zm-245.908 0l-25.638-14.872 1.004-1.73 25.638 14.872-1.004 1.73zm236.835-1.46l-16.172-25.291 1.686-1.077 16.172 25.29-1.686 1.078zm-227.76 0l-1.685-1.078 16.171-25.29 1.685 1.077-16.171 25.291zm231.555-28.463l-23.416-18.952 1.258-1.555 23.416 18.952-1.258 1.555zm-235.351 0l-1.258-1.555 23.416-18.952 1.258 1.555-23.416 18.952zm244.469-.96l-1.492-1.332 19.688-22.065 1.492 1.332-19.688 22.065zm-253.587 0l-19.688-22.066 1.492-1.332 19.688 22.065-1.492 1.333zm240.477-27.724l-27.303-12.966.857-1.807 27.303 12.966-.857 1.807zm-227.366 0l-.858-1.807 27.303-12.966.858 1.807-27.303 12.966zm-8.646-2.784l-13.684-26.135 1.771-.928 13.684 26.135-1.771.928zm244.657 0l-1.771-.928 13.683-26.135 1.771.928-13.683 26.135zm-20.008-23.546l-30.25-6.599.426-1.954 30.25 6.599-.426 1.954zm-204.641 0l-.426-1.954 30.252-6.599.426 1.954-30.252 6.599zm-7.28-5.366l-6.713-27.89 1.944-.468 6.713 27.89-1.944.468zm219.203 0l-1.945-.468 6.712-27.89 1.945.468-6.712 27.89zm-55.859-15.049l-.189-1.991 30.208-2.868.189 1.991-30.208 2.868zm-107.486 0l-30.21-2.868.189-1.991 30.21 2.868-.189 1.991zm141.824-9.277l-3.035-29.01 1.988-.208 3.035 29.01-1.988.208zm-176.162 0l-1.989-.208 3.035-29.01 1.989.208-3.035 29.01zm58.049-3.753l-30.029-7.464.482-1.941 30.029 7.464-.482 1.941zm60.063-.001l-.482-1.941 30.028-7.464.482 1.941-30.028 7.464zm32.267-14.87l-7.574-27.616 1.93-.529 7.574 27.616-1.93.529zm-124.597 0l-1.929-.529 7.575-27.616 1.929.529-7.575 27.616z"/><text transform="translate(108.947 120.61)"><tspan x="0" y="0" fill="#00E800" font-family="'Fugue-Regular'" font-size="22.539">C</tspan><tspan x="16.476" y="0" fill="#00E800" font-family="'Fugue-Regular'" font-size="22.539">e</tspan><tspan x="27.858" y="0" fill="#00E800" font-family="'Fugue-Regular'" font-size="22.539">n</tspan><tspan x="39.375" y="0" fill="#00E800" font-family="'Fugue-Regular'" font-size="22.539">y p</tspan><tspan x="67.324" y="0" fill="#00E800" font-family="'Fugue-Regular'" font-size="22.539">r</tspan><tspan x="74.536" y="0" fill="#00E800" font-family="'Fugue-Regular'" font-size="22.539">e</tspan></text><text transform="translate(100.788 147.657)" fill="#00E800" font-family="'Fugue-Regular'" font-size="22.539">3 najlepšie</text><text transform="translate(113.296 174.705)"><tspan x="0" y="0" fill="#00E800" font-family="'Fugue-Regular'" font-size="22.539">p</tspan><tspan x="12.847" y="0" fill="#00E800" font-family="'Fugue-Regular'" font-size="22.539">r</tspan><tspan x="20.082" y="0" fill="#00E800" font-family="'Fugue-Regular'" font-size="22.539">ojekty</tspan></text></svg>