<svg xmlns="http://www.w3.org/2000/svg" width="200" height="200" viewBox="0 0 200 200"><path d="M136 39l-29.1-29.1h29.1v29.1zm0 23.4h-19.4v5.7h19.4v13.7h-33.1v-33.1h33.1v13.7zm-33.1-48.5l29.1 29.1h-29.1v-29.1zm-5.7 29.1h-33.2v-33.1h33.2v33.1zm-38.9-38.8v44.5h38.8v33.1h-33.1v-18.6h-5.7v24.3h83.4v-83.4l-83.4.1z" fill="#fff"/><g fill="#fff"><path d="M16.6 109.6l166.8 82.5"/><path d="M18.116 106.603l166.801 82.517-2.971 6.005-166.801-82.517zM16.6 192.1l166.8-82.5"/><path d="M181.91 106.613l2.971 6.005-166.801 82.535-2.971-6.005z"/></g></svg>