<?xml version="1.0" encoding="utf-8"?>
<!-- Generator: Adobe Illustrator 16.0.0, SVG Export Plug-In . SVG Version: 6.00 Build 0)  -->
<!DOCTYPE svg PUBLIC "-//W3C//DTD SVG 1.1//EN" "http://www.w3.org/Graphics/SVG/1.1/DTD/svg11.dtd">
<svg version="1.1" id="Layer_1" xmlns="http://www.w3.org/2000/svg" xmlns:xlink="http://www.w3.org/1999/xlink" x="0px" y="0px"
	 width="350px" height="300px" viewBox="0 0 350 300" enable-background="new 0 0 350 300" xml:space="preserve">
<g>
	<path d="M77.6,52.875c0-9.241-8.471-16.941-19.251-16.941c-11.396,0-18.481,6.93-18.481,16.171c0,8.47,5.39,14.477,17.71,17.71
		c4.158,1.078,8.316,2.002,12.321,2.926c15.4,3.696,27.721,13.245,27.721,32.496c0,16.94-13.86,33.573-37.731,33.573
		c-20.945,0-38.964-16.325-39.272-33.573l16.171-6.161c-0.308,15.247,11.55,24.179,23.101,24.179
		c13.091,0,21.561-7.238,21.561-18.019c0-11.551-10.01-15.401-17.711-16.941c-3.695-0.77-8.47-2.002-12.32-3.234
		c-14.63-4.466-27.721-14.477-27.721-33.728c0-17.711,15.247-30.494,34.652-30.494c20.021,0,36.191,13.553,36.191,32.034H77.6z"/>
	<path d="M183.244,23.614h16.017v112.425H181.55l-47.896-84.704v84.704h-16.017V23.614h17.711l47.896,83.164V23.614z"/>
	<path d="M309.984,53.029c-7.392-10.626-19.404-17.095-34.497-17.095c-25.411,0-41.428,18.481-41.428,44.046
		c0,25.257,16.017,43.738,41.428,43.738c22.484,0,39.579-14.631,41.12-35.422h-57.291V72.896h58.522l14.631,14.631
		c-1.54,27.721-26.182,51.592-56.982,51.592c-33.111,0-57.753-26.181-57.753-59.292c0-33.112,24.642-59.293,58.522-59.293
		c18.481,0,34.036,8.316,44.816,21.407L309.984,53.029z"/>
</g>
<g>
	<path d="M16.027,165.314h7.201v23.762l0.36,0.36l0.36-0.36c1.44-2.16,5.04-3.6,7.92-3.6c8.641,0,13.681,5.76,13.681,13.681v20.882
		h-7.201v-20.882c-0.216-4.608-2.448-7.2-7.2-7.2c-4.249,0-7.777,3.456-7.921,7.632v20.45h-7.201V165.314z"/>
	<path d="M85.87,220.039h-6.481l-0.72-2.88l-0.36-0.36l-0.359,0.36c-2.16,2.16-5.761,3.6-9.361,3.6
		c-9.36,0-17.281-7.2-17.281-17.642c0-10.44,7.921-17.641,17.281-17.641c3.601,0,7.201,1.439,9.361,3.6l0.359,0.36l0.36-0.36
		l0.72-2.88h6.481V220.039z M68.948,191.957c-6.841,0-10.513,5.04-10.513,11.16c0,6.121,3.672,11.161,10.513,11.161
		c6.12,0,10.44-5.04,10.44-11.161C79.389,196.997,75.068,191.957,68.948,191.957z"/>
	<path d="M109.987,214.278c4.32,0,7.633-2.88,8.785-5.761l5.616,3.601c-2.809,5.041-7.921,8.641-14.762,8.641
		c-9.072,0-17.281-7.2-17.281-17.642c0-10.44,8.209-17.641,17.281-17.641c6.841,0,11.881,3.6,14.689,8.641l-5.616,3.6
		c-1.152-2.88-4.393-5.76-8.713-5.76c-6.841,0-10.585,5.04-10.585,11.16C99.402,209.238,103.146,214.278,109.987,214.278z"/>
	<path d="M150.667,186.196h9.36l-16.272,16.273l16.993,17.569h-9.361l-14.4-14.401v14.401h-7.201v-54.725h7.201v34.562
		L150.667,186.196z"/>
	<path d="M195.021,220.039h-6.481l-0.72-2.88l-0.36-0.36l-0.359,0.36c-2.16,2.16-5.761,3.6-9.361,3.6
		c-9.36,0-17.281-7.2-17.281-17.642c0-10.44,7.921-17.641,17.281-17.641c3.601,0,7.201,1.439,9.361,3.6l0.359,0.36l0.36-0.36
		l0.72-2.88h6.481V220.039z M178.099,191.957c-6.841,0-10.513,5.04-10.513,11.16c0,6.121,3.672,11.161,10.513,11.161
		c6.12,0,10.44-5.04,10.44-11.161C188.539,196.997,184.219,191.957,178.099,191.957z"/>
	<path d="M200.056,186.196h6.553v-7.2l5.688-7.201h1.368v14.401h7.272v6.48h-7.272v17.281c0,2.16,1.513,3.601,3.673,3.601l4.32-0.72
		v6.48l-3.961,0.72c-7.2,0-11.089-3.601-11.089-10.081v-17.281h-6.553V186.196z"/>
	<path d="M228.136,165.314h7.2v23.762l0.36,0.36l0.36-0.36c1.44-2.16,5.04-3.6,7.921-3.6c8.641,0,13.681,5.76,13.681,13.681v20.882
		h-7.2v-20.882c-0.216-4.608-2.448-7.2-7.201-7.2c-4.248,0-7.776,3.456-7.921,7.632v20.45h-7.2V165.314z"/>
	<path d="M281.057,185.477c9.36,0,17.642,7.2,17.642,17.641c0,10.441-8.281,17.642-17.642,17.642c-9.361,0-17.642-7.2-17.642-17.642
		C263.415,192.677,271.695,185.477,281.057,185.477z M281.057,214.278c6.841,0,10.44-5.04,10.44-11.161
		c0-6.12-3.6-11.16-10.44-11.16s-10.441,5.04-10.441,11.16C270.615,209.238,274.216,214.278,281.057,214.278z"/>
	<path d="M305.175,186.196h6.48l0.72,2.88l0.36,0.36l0.36-0.36c1.44-2.16,5.04-3.6,7.921-3.6c8.641,0,13.681,5.76,13.681,13.681
		v20.882h-7.2v-20.882c-0.216-4.608-2.448-7.2-7.201-7.2c-4.248,0-7.776,3.456-7.921,7.632v20.45h-7.2V186.196z"/>
</g>
<g>
	<path d="M3.905,260.706c0-4.438,3.755-7.509,7.851-7.509c4.096,0,7.851,2.73,7.851,7.509c0,3.072-1.979,5.052-3.413,6.485
		c-4.096,4.097-8.363,5.974-8.363,7.886h11.435v3.379H3.564v-1.707c0-4.607,6.144-7.509,10.24-11.605
		c1.161-1.16,2.39-2.219,2.39-4.438c0-2.73-2.219-4.198-4.438-4.198s-4.472,1.468-4.472,4.198v1.024H3.905V260.706z"/>
	<path d="M30.359,253.197c4.096,0,7.68,3.071,7.68,6.826c0,2.321-1.229,4.232-3.106,5.428c2.219,1.194,3.618,3.276,3.618,6.178
		c0,3.926-3.414,7.169-8.192,7.169s-8.192-3.243-8.192-7.169c0-2.901,1.399-4.983,3.584-6.178c-1.843-1.195-3.072-3.106-3.072-5.428
		C22.679,256.269,26.263,253.197,30.359,253.197z M30.359,275.555c2.731,0,4.779-1.707,4.779-4.096c0-2.561-2.048-4.268-4.779-4.268
		c-2.56,0-4.779,1.707-4.779,4.268C25.58,273.848,27.628,275.555,30.359,275.555z M30.359,264.018c2.731,0,4.267-1.945,4.267-3.823
		c0-2.219-1.877-3.755-4.267-3.755c-2.389,0-4.267,1.536-4.267,3.755C26.092,262.072,27.628,264.018,30.359,264.018z"/>
	<path d="M40.77,274.019h4.096v4.438H40.77V274.019z"/>
	<path d="M63.98,266.851v3.755h-8.875v-3.755H63.98z"/>
	<path d="M74.903,260.706c0-4.438,3.755-7.509,7.851-7.509s7.851,2.73,7.851,7.509c0,3.072-1.979,5.052-3.413,6.485
		c-4.096,4.097-8.363,5.974-8.363,7.886h11.435v3.379H74.562v-1.707c0-4.607,6.144-7.509,10.24-11.605
		c1.161-1.16,2.39-2.219,2.39-4.438c0-2.73-2.219-4.198-4.438-4.198s-4.472,1.468-4.472,4.198v1.024h-3.379V260.706z"/>
	<path d="M100.435,278.798c-4.096,0-7.305-2.901-7.271-7.169h3.413c0,2.561,1.775,3.926,3.994,3.926c4.54,0,5.632-5.939,5.564-9.353
		c-1.126,1.673-2.73,3.038-5.632,3.038c-4.95,0-7.851-3.755-7.851-8.021c0-4.097,3.072-8.021,8.021-8.021
		c3.243,0,5.974,1.945,7.305,4.812c1.024,2.219,1.434,5.018,1.399,7.987C109.31,272.482,106.818,278.798,100.435,278.798z
		 M96.066,261.219c0,2.73,2.048,4.744,4.779,4.744c2.73,0,4.505-1.979,4.505-4.744c0-2.561-1.945-4.745-4.676-4.745
		C97.943,256.474,96.066,258.487,96.066,261.219z"/>
	<path d="M111.767,274.019h4.096v4.438h-4.096V274.019z"/>
	<path d="M127.127,262.413h3.072l0.341,1.365l0.171,0.171l0.17-0.171c0.683-1.023,2.389-1.706,3.755-1.706
		c4.096,0,6.485,2.73,6.485,6.485v9.898h-3.414v-9.898c-0.102-2.185-1.16-3.414-3.413-3.414c-2.014,0-3.687,1.639-3.755,3.618v9.694
		h-3.414V262.413z"/>
	<path d="M152.215,262.072c4.438,0,8.363,3.413,8.363,8.362s-3.925,8.363-8.363,8.363s-8.363-3.414-8.363-8.363
		S147.778,262.072,152.215,262.072z M152.215,275.726c3.243,0,4.95-2.39,4.95-5.291s-1.707-5.291-4.95-5.291
		s-4.949,2.39-4.949,5.291S148.973,275.726,152.215,275.726z"/>
	<path d="M172.695,262.413h3.414l-5.803,16.043h-3.072l-5.803-16.043h3.414l3.925,11.469L172.695,262.413z"/>
	<path d="M180.547,271.288c0,2.39,1.707,4.438,4.607,4.438c2.049,0,3.447-1.024,3.959-2.39l2.867,1.365
		c-1.365,2.39-3.754,4.097-6.996,4.097c-4.268,0-7.852-3.414-7.852-8.363s3.414-8.362,7.852-8.362c4.096,0,7.51,3.242,7.51,8.191
		l-0.342,1.024H180.547z M180.717,268.284h8.191c-0.17-1.775-1.877-3.141-3.924-3.141
		C182.594,265.144,181.229,266.509,180.717,268.284z"/>
	<path d="M208.877,263.778c0.854-1.023,2.561-1.706,3.926-1.706c3.754,0,5.803,2.389,5.803,5.803v10.581h-3.414v-10.24
		c0-2.048-1.023-3.072-2.73-3.072c-2.014,0-3.686,1.639-3.754,3.618v9.694h-3.414v-10.24c0-2.048-1.023-3.072-2.73-3.072
		c-2.014,0-3.688,1.639-3.754,3.618v9.694h-3.414v-16.043h3.072l0.342,1.365l0.17,0.171l0.17-0.171
		c0.684-1.023,2.391-1.706,3.756-1.706c2.457,0,4.232,1.058,5.119,2.73L208.877,263.778z"/>
	<path d="M222.359,252.515h3.381v11.264l0.203,0.171l0.172-0.171c1.023-1.023,2.764-1.706,4.438-1.706
		c4.438,0,8.191,3.413,8.191,8.362s-3.754,8.363-8.191,8.363c-1.707,0-3.414-0.684-4.438-1.707l-0.172-0.171l-0.203,0.171
		l-0.309,1.365h-3.072V252.515z M230.381,275.726c3.244,0,4.949-2.39,4.949-5.291s-1.705-5.291-4.949-5.291
		c-2.9,0-4.949,2.39-4.949,5.291S227.48,275.726,230.381,275.726z"/>
	<path d="M244.207,271.288c0,2.39,1.707,4.438,4.607,4.438c2.049,0,3.447-1.024,3.959-2.39l2.867,1.365
		c-1.365,2.39-3.754,4.097-6.996,4.097c-4.268,0-7.852-3.414-7.852-8.363s3.414-8.362,7.852-8.362c4.096,0,7.51,3.242,7.51,8.191
		l-0.342,1.024H244.207z M244.377,268.284h8.191c-0.17-1.775-1.877-3.141-3.924-3.141
		C246.254,265.144,244.889,266.509,244.377,268.284z"/>
	<path d="M259.055,262.413h3.072l0.342,1.707l0.17,0.17l0.17-0.17c1.025-1.365,2.391-2.048,3.756-2.048c0.682,0,1.023,0,1.707,0.341
		v3.072h-2.049c-2.014,0-3.688,1.639-3.754,3.618v9.353h-3.414V262.413z"/>
	<path d="M278.51,260.706c0-4.438,3.756-7.509,7.852-7.509s7.85,2.73,7.85,7.509c0,3.072-1.979,5.052-3.412,6.485
		c-4.098,4.097-8.363,5.974-8.363,7.886h11.436v3.379h-15.703v-1.707c0-4.607,6.145-7.509,10.24-11.605
		c1.16-1.16,2.391-2.219,2.391-4.438c0-2.73-2.219-4.198-4.438-4.198s-4.473,1.468-4.473,4.198v1.024h-3.379V260.706z"/>
	<path d="M304.963,278.798c-5.494,0-8.533-5.462-8.533-12.801s3.039-12.8,8.533-12.8c5.463,0,8.533,5.461,8.533,12.8
		S310.426,278.798,304.963,278.798z M304.963,275.521c3.584,0,5.121-3.892,5.121-9.523s-1.537-9.523-5.121-9.523
		s-5.119,3.892-5.119,9.523S301.379,275.521,304.963,275.521z"/>
	<path d="M320.836,253.538h4.096v24.918h-3.412v-20.48l-2.014,3.072h-3.447v-0.683L320.836,253.538z"/>
	<path d="M329.711,268.728c5.973-8.704,10.24-15.189,10.24-15.189h4.438v15.189h2.73v3.243h-2.73v6.485h-3.414v-6.485h-11.264
		V268.728z M340.975,268.728v-10.889c-1.98,2.936-4.711,6.998-7.441,10.889H340.975z"/>
</g>
</svg>
